<svg width="27" height="23" viewBox="0 0 27 23" fill="none" xmlns="http://www.w3.org/2000/svg">
<path d="M0.431561 12.2789L10.1822 22.0298C10.4606 22.3082 10.8315 22.4609 11.2271 22.4609C11.6231 22.4609 11.9938 22.3079 12.2722 22.0298L13.1575 21.1443C13.4356 20.8664 13.5888 20.4952 13.5888 20.0994C13.5888 19.7039 13.4356 19.3202 13.1575 19.0423L7.46907 13.3414L25.5414 13.3414C26.3562 13.3414 27 12.7035 27 11.8884L27 10.6366C27 9.82153 26.3562 9.11932 25.5414 9.11932L7.40453 9.11932L13.1572 3.38658C13.4354 3.10824 13.5886 2.74715 13.5886 2.35137C13.5886 1.95603 13.4354 1.58967 13.1572 1.31155L12.272 0.428902C11.9936 0.150563 11.6229 -0.00111905 11.2269 -0.00111909C10.8313 -0.00111912 10.4603 0.152537 10.182 0.430876L0.431342 10.1815C0.152345 10.4607 -0.00109189 10.8335 4.79656e-06 11.2297C-0.000872619 11.6272 0.152345 12.0002 0.431561 12.2789Z" fill="#E21C24"/>
</svg>