<svg width="31" height="35" viewBox="0 0 31 35" fill="none" xmlns="http://www.w3.org/2000/svg">
<path d="M19.6002 25.9421C22.53 21.0828 26.233 14.2515 26.233 10.74C26.233 4.8167 21.4162 0 15.4929 0C9.56956 0 4.75286 4.8167 4.75286 10.74C4.75286 14.2515 8.45584 21.0828 11.3856 25.9421C7.90961 26.2046 0 27.1481 0 30.2764C0 33.3552 8.03021 34.7597 15.5 34.7597C22.9627 34.7597 31 33.3552 31 30.2764C30.9929 27.1481 23.0762 26.2046 19.6002 25.9421ZM6.23547 10.74C6.23547 5.63249 10.3924 1.47552 15.4929 1.47552C20.6005 1.47552 24.7574 5.63249 24.7574 10.74C24.7574 15.2021 17.6494 26.3961 15.4929 29.6876C13.3364 26.3961 6.23547 15.2021 6.23547 10.74ZM15.4929 33.2771C6.41991 33.2771 1.47552 31.2908 1.47552 30.2693C1.47552 29.4819 4.73867 27.7865 12.2581 27.3538C13.6698 29.6309 14.741 31.2412 14.8828 31.4327C15.0744 31.6881 15.6348 31.9931 16.1101 31.4327C16.259 31.2554 17.3231 29.6309 18.7348 27.3538C26.2542 27.7865 29.5174 29.4748 29.5174 30.2693C29.5103 31.2979 24.5659 33.2771 15.4929 33.2771Z" fill="white"/>
<path d="M20.168 10.7393C20.168 8.15713 18.0753 6.06445 15.4932 6.06445C12.911 6.06445 10.8184 8.15713 10.8184 10.7393C10.8184 13.3214 12.911 15.4141 15.4932 15.4141C18.0753 15.4141 20.168 13.3214 20.168 10.7393ZM12.2939 10.7393C12.2939 8.97292 13.7268 7.53997 15.4932 7.53997C17.2595 7.53997 18.6925 8.97292 18.6925 10.7393C18.6925 12.5056 17.2595 13.9386 15.4932 13.9386C13.7268 13.9386 12.2939 12.5056 12.2939 10.7393Z" fill="white"/>
</svg>
