<svg width="36" height="36" viewBox="0 0 36 36" fill="none" xmlns="http://www.w3.org/2000/svg">
<path d="M27.6863 21.7202C26.9684 20.9727 26.1026 20.5731 25.1849 20.5731C24.2746 20.5731 23.4014 20.9653 22.6539 21.7128L20.3154 24.044C20.1229 23.9404 19.9305 23.8442 19.7455 23.748C19.4791 23.6147 19.2275 23.4889 19.0129 23.3557C16.8223 21.9644 14.8315 20.1513 12.9222 17.8053C11.9971 16.636 11.3755 15.6518 10.9241 14.6527C11.5309 14.0976 12.0933 13.5204 12.641 12.9654C12.8482 12.7581 13.0554 12.5435 13.2626 12.3363C14.8167 10.7822 14.8167 8.76924 13.2626 7.21513L11.2423 5.19478C11.0129 4.96536 10.776 4.72854 10.554 4.49173C10.11 4.03289 9.64376 3.55926 9.16273 3.11522C8.44488 2.40477 7.58641 2.02734 6.68355 2.02734C5.78068 2.02734 4.90741 2.40477 4.16736 3.11522C4.15996 3.12262 4.15996 3.12262 4.15256 3.13003L1.63637 5.66841C0.689101 6.61568 0.148861 7.77017 0.0304522 9.10967C-0.147161 11.2706 0.489286 13.2836 0.977722 14.6009C2.17661 17.8349 3.96754 20.8321 6.63914 24.044C9.88058 27.9145 13.7807 30.9709 18.2358 33.1244C19.9379 33.9311 22.2099 34.8858 24.7483 35.0486C24.9037 35.056 25.0665 35.0634 25.2145 35.0634C26.924 35.0634 28.3598 34.4491 29.4846 33.2281C29.492 33.2133 29.5068 33.2059 29.5142 33.1911C29.8991 32.7248 30.3431 32.303 30.8093 31.8516C31.1276 31.5481 31.4532 31.2299 31.7714 30.8969C32.5041 30.1346 32.8889 29.2466 32.8889 28.3363C32.8889 27.4186 32.4967 26.538 31.7492 25.7979L27.6863 21.7202ZM30.3357 29.513C30.3283 29.513 30.3283 29.5204 30.3357 29.513C30.0471 29.8238 29.7511 30.105 29.4328 30.4158C28.9518 30.8747 28.4634 31.3557 28.0045 31.896C27.2571 32.6952 26.3764 33.0726 25.2219 33.0726C25.1109 33.0726 24.9925 33.0726 24.8815 33.0652C22.6835 32.9246 20.641 32.0662 19.1091 31.3335C14.9204 29.3058 11.2423 26.427 8.18586 22.7785C5.66227 19.7369 3.97494 16.9246 2.85746 13.9052C2.16921 12.0625 1.91759 10.6268 2.0286 9.27248C2.10261 8.40662 2.43563 7.68876 3.04988 7.07452L5.57346 4.55093C5.93609 4.21051 6.32092 4.02549 6.69835 4.02549C7.16458 4.02549 7.54201 4.30671 7.77883 4.54353C7.78623 4.55093 7.79363 4.55833 7.80103 4.56573C8.25246 4.98756 8.68169 5.4242 9.13313 5.89043C9.36254 6.12725 9.59936 6.36407 9.83618 6.60828L11.8565 8.62863C12.641 9.41309 12.641 10.1383 11.8565 10.9228C11.6419 11.1374 11.4347 11.352 11.2201 11.5592C10.5984 12.1957 10.0064 12.7877 9.36254 13.365C9.34774 13.3798 9.33294 13.3872 9.32554 13.402C8.68909 14.0384 8.8075 14.6601 8.94071 15.0819C8.94811 15.1041 8.95551 15.1263 8.96291 15.1485C9.48835 16.4214 10.2284 17.6203 11.3533 19.0486L11.3607 19.056C13.4032 21.5722 15.5568 23.5333 17.9324 25.0356C18.2358 25.2281 18.5466 25.3835 18.8426 25.5315C19.1091 25.6647 19.3607 25.7905 19.5753 25.9237C19.6049 25.9385 19.6345 25.9607 19.6641 25.9755C19.9157 26.1013 20.1525 26.1605 20.3968 26.1605C21.011 26.1605 21.3958 25.7757 21.5216 25.6499L24.0526 23.1189C24.3043 22.8673 24.7039 22.5639 25.1701 22.5639C25.6289 22.5639 26.0064 22.8525 26.2358 23.1041C26.2432 23.1115 26.2432 23.1115 26.2506 23.1189L30.3283 27.1966C31.0906 27.9515 31.0906 28.7285 30.3357 29.513Z" fill="white"/>
<path d="M18.9239 8.33934C20.8629 8.66497 22.6242 9.58264 24.0303 10.9887C25.4364 12.3948 26.3467 14.1562 26.6797 16.0951C26.7611 16.5836 27.1829 16.924 27.664 16.924C27.7232 16.924 27.775 16.9166 27.8342 16.9092C28.3818 16.8204 28.7445 16.3023 28.6556 15.7547C28.256 13.4087 27.1459 11.27 25.4512 9.57524C23.7565 7.88051 21.6177 6.77043 19.2718 6.3708C18.7241 6.28199 18.2135 6.64462 18.1173 7.18486C18.0211 7.7251 18.3763 8.25054 18.9239 8.33934Z" fill="white"/>
<path d="M34.9985 15.4676C34.3399 11.6045 32.5194 8.08923 29.7219 5.29182C26.9245 2.49442 23.4093 0.67388 19.5462 0.0152314C19.006 -0.0809757 18.4953 0.289052 18.3991 0.829292C18.3103 1.37693 18.6729 1.88757 19.2206 1.98378C22.6692 2.56842 25.8145 4.20394 28.3158 6.69793C30.8172 9.19931 32.4454 12.3445 33.03 15.7932C33.1114 16.2816 33.5332 16.6221 34.0143 16.6221C34.0735 16.6221 34.1253 16.6147 34.1845 16.6073C34.7247 16.5259 35.0947 16.0078 34.9985 15.4676Z" fill="white"/>
</svg>
