<svg width="32" height="29" viewBox="0 0 32 29" fill="none" xmlns="http://www.w3.org/2000/svg"> <path d="M31.5057 1.73926C31.1148 1.26124 30.5294 0.998055 29.857 0.998055C29.4915 0.998055 29.1043 1.07496 28.7064 1.22706L1.61903 11.5671C0.181538 12.1157 -0.0120652 12.9389 0.000385916 13.3808C0.012837 13.8227 0.252827 14.6338 1.71913 15.1003C1.72792 15.103 1.73671 15.1057 1.7455 15.1081L7.36414 16.716L10.4027 25.405C10.817 26.5895 11.7469 27.3254 12.8299 27.3254C13.5128 27.3254 14.1844 27.0393 14.7723 26.4982L18.2477 23.2983L23.2884 27.3571C23.2889 27.3576 23.2896 27.3579 23.2901 27.3583L23.338 27.3969C23.3424 27.4003 23.347 27.404 23.3514 27.4074C23.9117 27.842 24.5233 28.0715 25.1207 28.0717H25.1209C26.2882 28.0717 27.2176 27.2077 27.4884 25.8708L31.9266 3.95581C32.1048 3.07617 31.9554 2.28907 31.5057 1.73926V1.73926ZM9.24377 16.4106L20.0838 10.8728L13.3341 18.0449C13.2235 18.1623 13.1451 18.3061 13.1066 18.4626L11.805 23.7346L9.24377 16.4106ZM13.5021 25.1188C13.4571 25.1601 13.412 25.197 13.3668 25.2309L14.5743 20.3403L16.7709 22.1091L13.5021 25.1188ZM30.0889 3.5835L25.6507 25.4987C25.608 25.7084 25.4715 26.1965 25.1207 26.1965C24.9473 26.1965 24.7296 26.102 24.5067 25.9304L18.7948 21.3313C18.794 21.3305 18.7931 21.3298 18.7921 21.3293L15.3934 18.5925L25.1544 8.22069C25.4669 7.88866 25.4952 7.38012 25.2215 7.01537C24.9476 6.65063 24.4513 6.53588 24.0452 6.7434L7.99109 14.945L2.29603 13.3157L29.3751 2.97876C29.6038 2.89136 29.7635 2.87305 29.857 2.87305C29.9144 2.87305 30.0164 2.87989 30.0543 2.92652C30.1041 2.98731 30.1675 3.19458 30.0889 3.5835V3.5835Z" fill="white"></path> <circle cx="7.5" cy="21.5" r="7.5" fill="#E21C24"></circle> <path d="M7.50745 17C9.99739 17 11.9996 18.8708 11.9996 21.1789C11.9996 22.1757 11.6236 23.0871 10.9964 23.8047C11.2165 24.8167 11.952 25.7187 11.9608 25.7288C12.0004 25.774 12.0114 25.844 11.9872 25.9042C11.9652 25.9645 11.9164 26 11.8592 26C10.6926 26 9.83238 25.3619 9.38334 24.9675C8.80875 25.2137 8.16795 25.3571 7.49211 25.3571C5.00217 25.3571 3 23.4861 3 21.1963C3 18.9066 5.01751 17 7.50745 17ZM9.77728 21.8218C10.0898 21.8218 10.3408 21.5355 10.3408 21.1969C10.3408 20.8584 10.0898 20.554 9.77728 20.554C9.46471 20.554 9.21378 20.8403 9.21378 21.1969C9.21378 21.5535 9.44974 21.8218 9.77728 21.8218ZM7.50745 21.8218C7.82001 21.8218 8.0551 21.5355 8.0551 21.1969C8.0551 20.8584 7.80416 20.554 7.50745 20.554C7.21073 20.554 6.9598 20.8403 6.9598 21.1969C6.9598 21.5535 7.194 21.8218 7.50745 21.8218ZM5.26932 21.8218C5.58188 21.8218 5.83281 21.5355 5.83281 21.1969C5.83281 20.8584 5.58188 20.554 5.26932 20.554C4.95675 20.554 4.70582 20.8403 4.70582 21.1969C4.70582 21.5535 4.94179 21.8218 5.26932 21.8218Z" fill="white"></path> </svg>