<svg width="35" height="22" viewBox="0 0 35 22"><path d="M17.7113 22C22.7745 22 20.9691 18.7763 21.36 17.8493C21.3541 17.1571 21.3483 16.4912 21.3716 16.0864C21.6925 16.1773 22.4493 16.5631 24.0127 18.0913C26.4262 20.5407 27.043 22 28.9928 22H32.5817C33.7192 22 34.3113 21.5263 34.6073 21.1288C34.8932 20.7445 35.1732 20.0699 34.8669 19.0197C34.0663 16.4912 29.3968 12.1249 29.1066 11.6644C29.1503 11.5793 29.2203 11.4664 29.2568 11.4077H29.2538C30.1755 10.1831 33.693 4.88253 34.2107 2.76173C34.2121 2.7588 34.2136 2.7544 34.2136 2.75C34.4936 1.782 34.2369 1.15427 33.9715 0.799333C33.5719 0.2684 32.9361 0 32.0771 0H28.4882C27.2866 0 26.3751 0.608667 25.9143 1.71893C25.1429 3.6916 22.9758 7.7484 21.3512 9.18427C21.3016 7.15 21.3352 5.5968 21.3614 4.44253C21.4139 2.1912 21.5831 0 19.26 0H13.6192C12.1638 0 10.7711 1.59867 12.279 3.49653C13.5974 5.15973 12.753 6.08667 13.0374 10.7008C11.929 9.50547 9.95739 6.27733 8.56324 2.1516C8.17241 1.03547 7.58033 0.00146656 5.91348 0.00146656H2.32456C0.869157 0.00146656 0 0.799333 0 2.13547C0 5.13627 6.60472 22 17.7113 22ZM5.91348 2.20147C6.22993 2.20147 6.26201 2.20147 6.4968 2.87173C7.9245 7.10013 11.127 13.3569 13.4661 13.3569C15.2234 13.3569 15.2234 11.5456 15.2234 10.8636L15.2219 5.434C15.1257 3.63733 14.4753 2.74267 14.048 2.2L19.1637 2.20587C19.1667 2.2308 19.1346 8.21187 19.1783 9.66093C19.1783 11.7187 20.8029 12.8979 23.3389 10.3165C26.0149 7.27907 27.8655 2.73827 27.9399 2.55347C28.0493 2.28947 28.1441 2.2 28.4882 2.2H32.0771H32.0917C32.0903 2.2044 32.0903 2.2088 32.0888 2.2132C31.7607 3.7532 28.5218 8.66067 27.4382 10.1845C27.4207 10.208 27.4047 10.2329 27.3887 10.2579C26.9118 11.0411 26.5239 11.9064 27.4543 13.1237H27.4557C27.5403 13.2264 27.7605 13.4669 28.0814 13.8013C29.0788 14.8368 32.5001 18.3773 32.8034 19.7853C32.6021 19.8176 32.3834 19.7941 28.9928 19.8015C28.2709 19.8015 27.7066 18.7161 25.5526 16.5308C23.616 14.6359 22.3589 13.8615 21.2141 13.8615C18.9917 13.8615 19.1535 15.6757 19.174 17.8699C19.1812 20.2488 19.1667 19.4964 19.1827 19.646C19.0529 19.6973 18.681 19.8 17.7113 19.8C8.45824 19.8 2.43247 5.0292 2.2006 2.20587C2.28081 2.19853 3.38475 2.20293 5.91348 2.20147Z"></path></svg>