<svg width="32" height="21" viewBox="0 0 32 21" fill="none" xmlns="http://www.w3.org/2000/svg"> <path d="M16.1932 20.1143C20.8224 20.1143 19.1717 17.1669 19.5291 16.3193C19.5237 15.6865 19.5184 15.0777 19.5397 14.7076C19.8331 14.7907 20.5251 15.1434 21.9545 16.5406C24.1611 18.7801 24.725 20.1143 26.5077 20.1143H29.789C30.829 20.1143 31.3703 19.6812 31.6409 19.3177C31.9023 18.9664 32.1583 18.3496 31.8783 17.3894C31.1463 15.0777 26.8771 11.0856 26.6117 10.6646C26.6517 10.5868 26.7157 10.4836 26.7491 10.4299H26.7463C27.589 9.31026 30.805 4.46402 31.2783 2.52501C31.2796 2.52233 31.281 2.51831 31.281 2.51428C31.537 1.62926 31.3023 1.05533 31.0596 0.730818C30.6943 0.245394 30.113 0 29.3276 0H26.0463C24.9477 0 24.1144 0.556495 23.6931 1.57159C22.9878 3.37517 21.0064 7.08425 19.5211 8.39704C19.4757 6.53714 19.5065 5.11707 19.5304 4.06174C19.5784 2.00338 19.7331 0 17.6091 0H12.4518C11.1212 0 9.84786 1.46164 11.2265 3.19683C12.4319 4.71746 11.6599 5.56495 11.9199 9.78358C10.9065 8.69071 9.10389 5.73927 7.82924 1.96718C7.47191 0.946715 6.93058 0.00134085 5.40661 0.00134085H2.12531C0.794657 0.00134085 0 0.730818 0 1.95243C0 4.69602 6.0386 20.1143 16.1932 20.1143ZM5.40661 2.01277C5.69593 2.01277 5.72526 2.01277 5.93993 2.62558C7.24525 6.49154 10.1733 12.212 12.3119 12.212C13.9185 12.212 13.9185 10.556 13.9185 9.93243L13.9172 4.96823C13.8292 3.32556 13.2346 2.50758 12.8439 2.01143L17.5211 2.01679C17.5238 2.03959 17.4945 7.50799 17.5344 8.83284C17.5344 10.7142 19.0198 11.7924 21.3384 9.43222C23.785 6.65515 25.477 2.50356 25.545 2.3346C25.6451 2.09323 25.7317 2.01143 26.0463 2.01143H29.3276H29.341C29.3397 2.01545 29.3397 2.01947 29.3383 2.0235C29.0383 3.43149 26.0771 7.91832 25.0863 9.31154C25.0703 9.33302 25.0557 9.35579 25.0411 9.37865C24.6051 10.0947 24.2504 10.8858 25.1011 11.9988H25.1023C25.1797 12.0927 25.381 12.3126 25.6744 12.6183C26.5863 13.5651 29.7144 16.8021 29.9917 18.0894C29.8076 18.1189 29.6077 18.0975 26.5077 18.1042C25.8477 18.1042 25.3317 17.1119 23.3624 15.1139C21.5918 13.3814 20.4424 12.6734 19.3957 12.6734C17.3638 12.6734 17.5118 14.3321 17.5305 16.3382C17.5371 18.5132 17.5238 17.8253 17.5385 17.962C17.4198 18.0089 17.0798 18.1028 16.1932 18.1028C7.73324 18.1028 2.22397 4.59812 2.01198 2.01679C2.08531 2.01008 3.09463 2.01411 5.40661 2.01277Z" fill="white"></path> <circle cx="7.5" cy="12.5" r="7.5" fill="#E21C24"></circle> <path d="M7.50745 8C9.99739 8 11.9996 9.87084 11.9996 12.1789C11.9996 13.1757 11.6236 14.0871 10.9964 14.8047C11.2165 15.8167 11.952 16.7187 11.9608 16.7288C12.0004 16.774 12.0114 16.844 11.9872 16.9042C11.9652 16.9645 11.9164 17 11.8592 17C10.6926 17 9.83238 16.3619 9.38334 15.9675C8.80875 16.2137 8.16795 16.3571 7.49211 16.3571C5.00217 16.3571 3 14.4861 3 12.1963C3 9.9066 5.01751 8 7.50745 8ZM9.77728 12.8218C10.0898 12.8218 10.3408 12.5355 10.3408 12.1969C10.3408 11.8584 10.0898 11.554 9.77728 11.554C9.46471 11.554 9.21378 11.8403 9.21378 12.1969C9.21378 12.5535 9.44974 12.8218 9.77728 12.8218ZM7.50745 12.8218C7.82001 12.8218 8.0551 12.5355 8.0551 12.1969C8.0551 11.8584 7.80416 11.554 7.50745 11.554C7.21073 11.554 6.9598 11.8403 6.9598 12.1969C6.9598 12.5535 7.194 12.8218 7.50745 12.8218ZM5.26932 12.8218C5.58188 12.8218 5.83281 12.5355 5.83281 12.1969C5.83281 11.8584 5.58188 11.554 5.26932 11.554C4.95675 11.554 4.70582 11.8403 4.70582 12.1969C4.70582 12.5535 4.94179 12.8218 5.26932 12.8218Z" fill="white"></path> </svg>