<?xml version="1.0" encoding="utf-8"?><svg xmlns="http://www.w3.org/2000/svg" xmlns:xlink="http://www.w3.org/1999/xlink"><symbol fill="none" viewBox="0 0 27 23" id="arrow_left" xmlns="http://www.w3.org/2000/svg"><path d="M.432 12.279l9.75 9.75c.279.28.65.432 1.045.432.396 0 .767-.153 1.045-.431l.886-.886c.278-.278.43-.649.43-1.045 0-.395-.152-.779-.43-1.057l-5.689-5.7h18.072c.815 0 1.459-.639 1.459-1.454v-1.251c0-.815-.644-1.518-1.459-1.518H7.405l5.752-5.732c.278-.279.432-.64.432-1.036 0-.395-.154-.761-.432-1.04L12.272.43a1.466 1.466 0 00-1.045-.43c-.396 0-.767.154-1.045.432l-9.75 9.75c-.28.28-.433.653-.432 1.049 0 .397.152.77.432 1.049z" fill="#E21C24"/></symbol><symbol fill="none" viewBox="0 0 27 23" id="arrow_right" xmlns="http://www.w3.org/2000/svg"><path d="M26.568 10.182l-9.75-9.75A1.467 1.467 0 0015.773 0c-.396 0-.767.153-1.045.431l-.886.886c-.278.278-.43.649-.43 1.044 0 .396.152.78.43 1.058l5.689 5.7H1.459C.644 9.12 0 9.758 0 10.574v1.251c0 .815.644 1.518 1.459 1.518h18.137l-5.753 5.732c-.278.279-.432.64-.432 1.036 0 .395.154.761.432 1.04l.885.882c.278.278.65.43 1.045.43.396 0 .767-.154 1.045-.432l9.75-9.75c.28-.28.433-.652.432-1.049 0-.397-.152-.77-.432-1.049z" fill="#fff"/></symbol><symbol fill="none" viewBox="0 0 31 35" id="geo" xmlns="http://www.w3.org/2000/svg"><path d="M19.6 25.942c2.93-4.86 6.633-11.69 6.633-15.202C26.233 4.817 21.416 0 15.493 0S4.753 4.817 4.753 10.74c0 3.511 3.703 10.343 6.633 15.202C7.91 26.205 0 27.148 0 30.276c0 3.08 8.03 4.484 15.5 4.484 7.463 0 15.5-1.405 15.5-4.484-.007-3.128-7.924-4.071-11.4-4.334zM6.235 10.74c0-5.108 4.157-9.264 9.258-9.264 5.107 0 9.264 4.156 9.264 9.264 0 4.462-7.108 15.656-9.264 18.948-2.157-3.292-9.258-14.486-9.258-18.948zm9.258 22.537c-9.073 0-14.017-1.986-14.017-3.008 0-.787 3.263-2.482 10.782-2.915 1.412 2.277 2.483 3.887 2.625 4.079.191.255.752.56 1.227 0 .149-.178 1.213-1.802 2.625-4.08 7.52.433 10.782 2.122 10.782 2.916-.007 1.029-4.951 3.008-14.024 3.008z" fill="#fff"/><path d="M20.168 10.74a4.674 4.674 0 10-9.349-.002 4.674 4.674 0 009.349.001zm-7.874 0a3.2 3.2 0 116.4 0 3.2 3.2 0 01-6.4 0z" fill="#fff"/></symbol><symbol fill="none" viewBox="0 0 36 36" id="phone" xmlns="http://www.w3.org/2000/svg"><path d="M27.686 21.72c-.718-.747-1.583-1.147-2.501-1.147-.91 0-1.784.392-2.531 1.14l-2.339 2.331c-.192-.104-.385-.2-.57-.296-.266-.133-.518-.26-.732-.392-2.19-1.392-4.182-3.205-6.09-5.55-.926-1.17-1.547-2.154-1.999-3.153.607-.555 1.17-1.133 1.717-1.688.207-.207.414-.421.622-.629 1.554-1.554 1.554-3.567 0-5.12l-2.02-2.021c-.23-.23-.467-.466-.689-.703-.444-.46-.91-.933-1.391-1.377-.718-.71-1.577-1.088-2.48-1.088-.902 0-1.776.378-2.516 1.088l-.014.015-2.517 2.538A5.414 5.414 0 00.03 9.11c-.177 2.16.46 4.174.948 5.49 1.199 3.235 2.99 6.232 5.661 9.444 3.242 3.87 7.142 6.927 11.597 9.08 1.702.807 3.974 1.762 6.512 1.925.156.007.319.014.466.014 1.71 0 3.146-.614 4.27-1.835.008-.015.023-.022.03-.037.385-.466.83-.888 1.295-1.34.319-.303.644-.621.962-.954.733-.762 1.118-1.65 1.118-2.56 0-.918-.392-1.799-1.14-2.54l-4.063-4.077zm2.65 7.793c-.008 0-.008.007 0 0-.289.31-.585.592-.903.903-.481.459-.97.94-1.428 1.48-.748.8-1.629 1.177-2.783 1.177-.111 0-.23 0-.34-.008-2.199-.14-4.241-.999-5.773-1.731-4.189-2.028-7.867-4.907-10.923-8.555-2.524-3.042-4.211-5.854-5.329-8.874-.688-1.842-.94-3.278-.828-4.633a3.397 3.397 0 011.02-2.197L5.574 4.55c.363-.34.748-.526 1.125-.526.467 0 .844.282 1.08.519l.023.022c.451.422.88.858 1.332 1.324.23.237.466.474.703.718l2.02 2.02c.785.785.785 1.51 0 2.295-.214.214-.421.429-.636.636a38.65 38.65 0 01-1.857 1.806c-.015.015-.03.022-.037.037-.637.636-.519 1.258-.385 1.68l.022.066c.525 1.273 1.265 2.472 2.39 3.9l.008.008c2.042 2.516 4.196 4.477 6.571 5.98.304.192.615.348.91.495.267.134.519.26.733.393.03.015.06.037.09.052.25.125.488.184.732.184.614 0 .999-.384 1.125-.51l2.53-2.531c.252-.252.652-.555 1.118-.555.459 0 .836.288 1.066.54l.015.015 4.077 4.078c.763.755.763 1.532.008 2.316zM18.924 8.34a9.385 9.385 0 015.106 2.649 9.434 9.434 0 012.65 5.106.993.993 0 00.984.829c.06 0 .111-.007.17-.015a1 1 0 00.822-1.154 11.414 11.414 0 00-3.205-6.18 11.414 11.414 0 00-6.18-3.204 1.004 1.004 0 00-1.154.814.988.988 0 00.807 1.154zM34.998 15.468a18.778 18.778 0 00-5.276-10.176A18.778 18.778 0 0019.546.015.995.995 0 0018.4.83a1.004 1.004 0 00.822 1.155c3.448.584 6.593 2.22 9.095 4.714a16.765 16.765 0 014.714 9.095.993.993 0 00.984.83c.06 0 .111-.008.17-.016a.98.98 0 00.815-1.14z" fill="#fff"/></symbol><symbol viewBox="0 -39 512 512" id="tg" xmlns="http://www.w3.org/2000/svg"><path d="M504.094 11.86C497.84 4.21 488.473 0 477.714 0c-5.847 0-12.042 1.23-18.41 3.664L25.907 169.105c-23 8.778-26.097 21.95-25.898 29.02s4.039 20.047 27.5 27.512c.14.043.281.086.422.125l89.898 25.726 48.617 139.024c6.63 18.953 21.508 30.726 38.836 30.726 10.926 0 21.672-4.578 31.078-13.234l55.606-51.2 80.652 64.942c.008.008.02.012.028.02l.765.617.215.168c8.965 6.953 18.75 10.625 28.309 10.629h.003c18.676 0 33.547-13.825 37.88-35.215l71.011-350.64c2.852-14.075.461-26.669-6.734-35.466zM147.902 246.601l173.442-88.606L213.348 272.75a14.975 14.975 0 00-3.641 6.684l-20.824 84.351zm68.133 139.332c-.719.66-1.441 1.25-2.164 1.793l19.32-78.25 35.145 28.3zm265.39-344.567l-71.01 350.645c-.685 3.355-2.868 11.164-8.481 11.164-2.774 0-6.258-1.512-9.825-4.258l-91.39-73.586a.173.173 0 00-.043-.031l-54.38-43.79 156.177-165.949a15 15 0 00-17.746-23.636L127.859 223.152l-91.12-26.07 433.265-165.39c3.66-1.399 6.215-1.692 7.71-1.692.919 0 2.552.11 3.157.855.797.973 1.813 4.29.555 10.512zm0 0"/></symbol><symbol fill="none" viewBox="0 0 32 29" id="tg_chat" xmlns="http://www.w3.org/2000/svg"><path d="M31.506 1.74c-.391-.479-.977-.742-1.649-.742-.366 0-.753.077-1.15.23L1.618 11.567C.182 12.115-.012 12.937 0 13.38c.013.442.253 1.253 1.72 1.72l.026.007 5.618 1.608 3.039 8.689c.414 1.184 1.344 1.92 2.427 1.92.683 0 1.354-.286 1.942-.827l3.476-3.2 5.04 4.06h.002l.048.039.013.01c.56.435 1.172.665 1.77.665 1.167 0 2.097-.864 2.367-2.201l4.439-21.915c.178-.88.028-1.667-.421-2.217zM9.244 16.41l10.84-5.537-6.75 7.172a.935.935 0 00-.227.418l-1.302 5.272-2.561-7.324zm4.258 8.709c-.045.041-.09.078-.135.112l1.207-4.89 2.197 1.768-3.269 3.01zM30.09 3.584L25.65 25.498c-.043.21-.18.698-.53.698-.174 0-.391-.095-.614-.267l-5.712-4.599a.01.01 0 00-.003-.002l-3.399-2.736L25.154 8.22a.937.937 0 00-1.109-1.478L7.991 14.945l-5.695-1.63L29.376 2.98c.228-.088.387-.106.481-.106.057 0 .16.007.197.054.05.06.114.268.035.656z" fill="#fff"/><circle cx="7.5" cy="21.5" r="7.5" fill="#E21C24"/><path d="M7.507 17C9.997 17 12 18.87 12 21.179a3.97 3.97 0 01-1.004 2.626c.22 1.012.956 1.914.965 1.924.04.045.05.115.026.175-.022.06-.07.096-.128.096-1.166 0-2.027-.638-2.476-1.032a4.799 4.799 0 01-1.89.39C5.002 25.357 3 23.485 3 21.195S5.018 17 7.507 17zm2.27 4.822c.313 0 .564-.287.564-.625 0-.339-.251-.643-.564-.643-.312 0-.563.286-.563.643 0 .357.236.625.563.625zm-2.27 0c.313 0 .548-.287.548-.625 0-.339-.25-.643-.548-.643-.296 0-.547.286-.547.643 0 .357.234.625.547.625zm-2.238 0c.313 0 .564-.287.564-.625 0-.339-.251-.643-.564-.643-.312 0-.563.286-.563.643 0 .357.236.625.563.625z" fill="#fff"/></symbol><symbol viewBox="0 0 35 22" id="vk"><path d="M17.711 22c5.064 0 3.258-3.224 3.649-4.15-.006-.693-.012-1.359.012-1.764.32.091 1.077.477 2.64 2.005 2.414 2.45 3.031 3.909 4.98 3.909h3.59c1.137 0 1.73-.474 2.025-.871.286-.385.566-1.06.26-2.11-.8-2.528-5.47-6.894-5.76-7.355.043-.085.113-.198.15-.256h-.003c.921-1.225 4.439-6.525 4.957-8.646a.029.029 0 00.003-.012c.28-.968.023-1.596-.242-1.95-.4-.532-1.036-.8-1.895-.8h-3.589c-1.201 0-2.113.609-2.574 1.719-.771 1.973-2.938 6.03-4.563 7.465a94.613 94.613 0 01.01-4.741C21.414 2.19 21.583 0 19.26 0h-5.64c-1.456 0-2.849 1.599-1.341 3.497 1.318 1.663.474 2.59.758 7.204-1.108-1.196-3.08-4.424-4.474-8.55-.39-1.116-.983-2.15-2.65-2.15H2.325C.869.001 0 .8 0 2.135 0 5.136 6.605 22 17.711 22zM5.913 2.201c.317 0 .349 0 .584.67 1.428 4.23 4.63 10.486 6.97 10.486 1.756 0 1.756-1.811 1.756-2.493l-.001-5.43c-.096-1.797-.747-2.691-1.174-3.234l5.116.006c.003.025-.03 6.006.014 7.455 0 2.058 1.625 3.237 4.16.655 2.677-3.037 4.527-7.578 4.602-7.763.11-.264.204-.353.548-.353H32.092c-.002.004-.002.009-.003.013-.328 1.54-3.567 6.448-4.65 7.971a1.255 1.255 0 00-.05.074c-.477.783-.865 1.648.065 2.866h.002c.084.102.305.343.625.677.998 1.036 4.42 4.576 4.722 5.984-.2.033-.42.01-3.81.017-.722 0-1.286-1.086-3.44-3.271-1.937-1.895-3.194-2.67-4.339-2.67-2.222 0-2.06 1.815-2.04 4.009.007 2.379-.007 1.626.009 1.776-.13.051-.502.154-1.472.154-9.253 0-15.279-14.77-15.51-17.594.08-.007 1.184-.003 3.712-.005z"/></symbol><symbol fill="none" viewBox="0 0 32 21" id="vk_chat" xmlns="http://www.w3.org/2000/svg"><path d="M16.193 20.114c4.63 0 2.979-2.947 3.336-3.795-.005-.632-.01-1.241.01-1.611.294.083.986.435 2.415 1.833 2.207 2.24 2.771 3.573 4.554 3.573h3.281c1.04 0 1.581-.433 1.852-.796.261-.352.517-.968.237-1.929-.732-2.311-5-6.303-5.266-6.724.04-.078.104-.181.137-.235h-.003c.843-1.12 4.059-5.966 4.532-7.905a.026.026 0 00.003-.01c.256-.886.021-1.46-.221-1.784C30.694.245 30.113 0 29.328 0h-3.282c-1.098 0-1.932.556-2.353 1.572-.705 1.803-2.687 5.512-4.172 6.825-.045-1.86-.015-3.28.01-4.335C19.577 2.003 19.732 0 17.608 0h-5.157c-1.33 0-2.604 1.462-1.226 3.197 1.206 1.52.434 2.368.694 6.587-1.014-1.093-2.816-4.045-4.09-7.817C7.471.947 6.93.001 5.406.001H2.125C.795.001 0 .731 0 1.952c0 2.744 6.039 18.162 16.193 18.162zM5.407 2.013c.289 0 .318 0 .533.613 1.305 3.866 4.233 9.586 6.372 9.586 1.607 0 1.607-1.656 1.607-2.28l-.002-4.964c-.088-1.642-.682-2.46-1.073-2.957l4.677.006c.003.023-.027 5.491.013 6.816 0 1.881 1.486 2.96 3.804.6 2.447-2.778 4.139-6.93 4.207-7.098.1-.242.187-.324.501-.324h3.295l-.003.012c-.3 1.408-3.26 5.895-4.252 7.289a1.13 1.13 0 00-.045.067c-.436.716-.79 1.507.06 2.62h.001c.078.094.279.314.572.62.912.946 4.04 4.183 4.318 5.47-.184.03-.384.009-3.484.015-.66 0-1.176-.992-3.146-2.99-1.77-1.733-2.92-2.44-3.966-2.44-2.032 0-1.884 1.658-1.866 3.664.007 2.175-.006 1.487.008 1.624-.118.047-.458.14-1.345.14-8.46 0-13.969-13.504-14.181-16.085.073-.007 1.083-.003 3.395-.004z" fill="#fff"/><circle cx="7.5" cy="12.5" r="7.5" fill="#E21C24"/><path d="M7.507 8C9.997 8 12 9.87 12 12.179a3.97 3.97 0 01-1.004 2.626c.22 1.012.956 1.914.965 1.924.04.045.05.115.026.175-.022.06-.07.096-.128.096-1.166 0-2.027-.638-2.476-1.033a4.799 4.799 0 01-1.89.39c-2.49 0-4.493-1.87-4.493-4.16S5.018 8 7.507 8zm2.27 4.822c.313 0 .564-.286.564-.625s-.251-.643-.564-.643c-.312 0-.563.286-.563.643 0 .357.236.625.563.625zm-2.27 0c.313 0 .548-.286.548-.625s-.25-.643-.548-.643c-.296 0-.547.286-.547.643 0 .357.234.625.547.625zm-2.238 0c.313 0 .564-.286.564-.625s-.251-.643-.564-.643c-.312 0-.563.286-.563.643 0 .357.236.625.563.625z" fill="#fff"/></symbol></svg>